<mxfile host="app.diagrams.net" modified="2023-09-02T00:25:45.144Z" agent="Mozilla/5.0 (Macintosh; Intel Mac OS X 10_15_7) AppleWebKit/537.36 (KHTML, like Gecko) Chrome/114.0.0.0 Safari/537.36" version="21.7.2" etag="m_njGoUm6j8U4iTzND_S" type="github">
  <diagram name="第 1 页" id="v4rp2MU2DIvw7WmQTmr3">
    <mxGraphModel>
      <root>
        <mxCell id="0" />
        <mxCell id="1" parent="0" />
      </root>
    </mxGraphModel>
  </diagram>
</mxfile>
